<?xml version="1.0" encoding="UTF-8"?><svg id="Layer_1" xmlns="http://www.w3.org/2000/svg" viewBox="0 0 717.54 97.01"><defs><style>.cls-1{fill:#1d1d1b;stroke-width:0px;}</style></defs><path class="cls-1" d="m1.16,55.87c.05-1.09.07-2.2.07-3.32V7.13c0-1.47-.03-2.9-.07-4.29h16.88c-.05,1.39-.07,2.81-.07,4.26v41.75c0,1.3.01,2.51.04,3.66.02,1.15.04,2.27.04,3.36H1.16Zm2.39-20.02v-14.49h48.85v14.49H3.55Zm34.36,20.02c.05-1.09.07-2.2.07-3.32V7.13c0-1.47-.03-2.9-.07-4.29h16.88c-.05,1.39-.07,2.81-.07,4.26v41.75c0,1.3.01,2.51.04,3.66.02,1.15.04,2.27.04,3.36h-16.88Z"/><path class="cls-1" d="m72.16,56.76c-2.79,0-5.14-.25-7.06-.75-1.92-.5-3.45-1.29-4.59-2.39-1.15-1.09-1.97-2.51-2.46-4.26-.5-1.74-.75-3.86-.75-6.35s.26-4.62.78-6.39c.52-1.77,1.38-3.22,2.58-4.37,1.2-1.15,2.76-1.98,4.71-2.5,1.94-.52,4.31-.78,7.1-.78,2.64,0,4.79.14,6.46.41,1.67.27,3.02.78,4.07,1.53,1.05.75,1.94,1.83,2.69,3.25.75,1.42,1.49,3.27,2.24,5.56l-1.94,2.09c0-.7-.09-1.28-.26-1.76-.17-.47-.46-.85-.86-1.12-.4-.27-.92-.47-1.57-.6-.65-.12-1.44-.19-2.39-.19-1.39,0-2.54.06-3.44.19-.9.12-1.57.34-2.02.63s-.76.69-.93,1.16c-.17.47-.26,1.08-.26,1.83,0,.95.16,1.69.49,2.24.32.55.92.93,1.79,1.16.87.22,2.08.34,3.62.34,1.14,0,2.09-.06,2.84-.19.75-.12,1.33-.32,1.76-.6.42-.27.73-.63.93-1.08.2-.45.3-1.02.3-1.72l1.94,2.91c-.75,2.09-1.51,3.88-2.28,5.38-.77,1.49-1.71,2.7-2.8,3.62-1.1.92-2.49,1.61-4.18,2.05-1.69.45-3.86.67-6.5.67Zm29.73-15.09v6.57c0,2.14.02,4.68.07,7.62h-15.46l-.15-7.39v-3.06l-.37-3.29v-.3l.82-2.69-1.34-1.49v-8.37c0-1.05-.07-1.92-.22-2.61-.15-.7-.42-1.27-.82-1.72-.4-.45-.96-.77-1.68-.97-.72-.2-1.66-.3-2.8-.3-1.3,0-2.32.06-3.06.19-.75.12-1.31.31-1.68.56-.37.25-.61.59-.71,1.01-.1.42-.15.91-.15,1.46l-14.56-.3c-.05-2.94.26-5.42.93-7.43.67-2.02,1.8-3.63,3.4-4.85,1.59-1.22,3.75-2.09,6.46-2.61,2.71-.52,6.09-.78,10.12-.78s7.49.29,10.23.86c2.74.57,4.92,1.44,6.54,2.61,1.62,1.17,2.77,2.65,3.47,4.44.7,1.79,1.05,3.93,1.05,6.42v3.85c0,1.07-.01,2.14-.04,3.21-.03,1.07-.04,2.34-.04,3.81v5.56Z"/><path class="cls-1" d="m139.98,55.87h-24.42c-.55-2.14-1.25-4.69-2.09-7.66-.85-2.96-1.75-6.12-2.73-9.49-.97-3.36-1.95-6.72-2.95-10.08-1-3.36-1.94-6.5-2.84-9.41-.9-2.91-1.67-5.39-2.32-7.43h18.22l3.58,17.18c.6,2.84,1.24,5.81,1.94,8.92.7,3.11,1.38,6.06,2.05,8.85.67,2.79,1.23,5.15,1.68,7.1l-5.3-12.47h7.39l-5.6,12.47c.5-1.89,1.05-4.22,1.64-6.98.6-2.76,1.23-5.7,1.9-8.81.67-3.11,1.28-6.06,1.83-8.85l3.51-17.4h17.63c-.65,2.04-1.42,4.52-2.32,7.43-.9,2.91-1.86,6.05-2.88,9.41-1.02,3.36-2.03,6.72-3.02,10.08-1,3.36-1.92,6.52-2.76,9.49-.85,2.96-1.57,5.52-2.17,7.66Z"/><path class="cls-1" d="m175.73,56.76c-4.03,0-7.48-.35-10.34-1.05-2.86-.7-5.18-1.87-6.95-3.51-1.77-1.64-3.08-3.87-3.92-6.68-.85-2.81-1.27-6.34-1.27-10.57v-2.24c0-4.23.42-7.75,1.27-10.57.85-2.81,2.15-5.04,3.92-6.68,1.77-1.64,4.08-2.81,6.95-3.51,2.86-.7,6.31-1.05,10.34-1.05s7.48.35,10.34,1.05c2.86.7,5.18,1.87,6.95,3.51,1.77,1.64,3.07,3.87,3.92,6.68.85,2.81,1.27,6.34,1.27,10.57v3.81h-33.38v-9.04h24.87l-8.22,6.72v-3.51c0-1.89-.06-3.41-.19-4.56-.12-1.14-.39-2.02-.78-2.61-.4-.6-.97-1-1.72-1.2-.75-.2-1.74-.3-2.99-.3-1.1,0-2.03.1-2.8.3-.77.2-1.39.6-1.87,1.2-.47.6-.81,1.49-1.01,2.69-.2,1.19-.3,2.79-.3,4.78v2.54c0,2.14.1,3.86.3,5.15.2,1.3.52,2.28.97,2.95.45.67,1.06,1.13,1.83,1.38.77.25,1.73.37,2.88.37s2.1-.07,2.88-.22c.77-.15,1.38-.39,1.83-.71.45-.32.77-.76.97-1.31.2-.55.3-1.22.3-2.02l16.43.3c0,3.24-.37,5.96-1.12,8.18-.75,2.22-1.99,4-3.73,5.34-1.74,1.34-4.05,2.31-6.91,2.91-2.86.6-6.44.9-10.72.9Z"/><path class="cls-1" d="m239.36,56.76c-2.79,0-5.14-.25-7.06-.75-1.92-.5-3.45-1.29-4.59-2.39-1.15-1.09-1.97-2.51-2.46-4.26-.5-1.74-.75-3.86-.75-6.35s.26-4.62.78-6.39c.52-1.77,1.38-3.22,2.58-4.37,1.2-1.15,2.76-1.98,4.71-2.5,1.94-.52,4.31-.78,7.1-.78,2.64,0,4.79.14,6.46.41,1.67.27,3.02.78,4.07,1.53,1.05.75,1.94,1.83,2.69,3.25.75,1.42,1.49,3.27,2.24,5.56l-1.94,2.09c0-.7-.09-1.28-.26-1.76-.17-.47-.46-.85-.86-1.12-.4-.27-.92-.47-1.57-.6-.65-.12-1.44-.19-2.39-.19-1.39,0-2.54.06-3.44.19-.9.12-1.57.34-2.02.63s-.76.69-.93,1.16c-.17.47-.26,1.08-.26,1.83,0,.95.16,1.69.49,2.24.32.55.92.93,1.79,1.16.87.22,2.08.34,3.62.34,1.14,0,2.09-.06,2.84-.19.75-.12,1.33-.32,1.76-.6.42-.27.73-.63.93-1.08.2-.45.3-1.02.3-1.72l1.94,2.91c-.75,2.09-1.51,3.88-2.28,5.38-.77,1.49-1.71,2.7-2.8,3.62-1.1.92-2.49,1.61-4.18,2.05-1.69.45-3.86.67-6.5.67Zm29.73-15.09v6.57c0,2.14.02,4.68.07,7.62h-15.46l-.15-7.39v-3.06l-.37-3.29v-.3l.82-2.69-1.34-1.49v-8.37c0-1.05-.07-1.92-.22-2.61-.15-.7-.42-1.27-.82-1.72-.4-.45-.96-.77-1.68-.97-.72-.2-1.66-.3-2.8-.3-1.3,0-2.32.06-3.06.19-.75.12-1.31.31-1.68.56-.37.25-.61.59-.71,1.01-.1.42-.15.91-.15,1.46l-14.56-.3c-.05-2.94.26-5.42.93-7.43.67-2.02,1.8-3.63,3.4-4.85,1.59-1.22,3.75-2.09,6.46-2.61,2.71-.52,6.09-.78,10.12-.78s7.49.29,10.23.86c2.74.57,4.92,1.44,6.54,2.61,1.62,1.17,2.77,2.65,3.47,4.44.7,1.79,1.05,3.93,1.05,6.42v3.85c0,1.07-.01,2.14-.04,3.21-.03,1.07-.04,2.34-.04,3.81v5.56Z"/><path class="cls-1" d="m325.47,56.91c-5.33,0-9.78-.45-13.37-1.34-3.58-.9-6.45-2.36-8.59-4.41-2.14-2.04-3.67-4.74-4.59-8.1-.92-3.36-1.38-7.53-1.38-12.51v-2.39c0-4.98.46-9.16,1.38-12.55.92-3.39,2.45-6.09,4.59-8.1,2.14-2.02,5-3.47,8.59-4.37,3.58-.9,8.04-1.34,13.37-1.34s9.77.27,13.33.82c3.56.55,6.36,1.52,8.4,2.91,2.04,1.39,3.48,3.37,4.33,5.94.85,2.56,1.22,5.84,1.12,9.82l-16.58.3h-.07c.05-.9-.01-1.67-.19-2.32-.17-.65-.59-1.17-1.23-1.57-.65-.4-1.66-.68-3.02-.86-1.37-.17-3.22-.26-5.56-.26s-4.25.18-5.71.52c-1.47.35-2.6.97-3.4,1.87-.8.9-1.34,2.17-1.64,3.81s-.45,3.78-.45,6.42v.3c0,2.79.15,5.05.45,6.8.3,1.74.83,3.09,1.61,4.03.77.95,1.85,1.59,3.25,1.94,1.39.35,3.19.52,5.38.52,1.99,0,3.66-.04,5-.11,1.34-.07,2.44-.19,3.29-.34.85-.15,1.48-.37,1.9-.67.42-.3.71-.67.86-1.12.15-.45.22-1,.22-1.64v-5.6l4.85,5.08h-21.06v-11.73h32.34c0,.85-.01,1.79-.04,2.84-.03,1.05-.04,2.03-.04,2.95v2.2c0,3.73-.27,6.91-.82,9.52-.55,2.61-1.43,4.76-2.65,6.42-1.22,1.67-2.89,2.96-5,3.88-2.12.92-4.72,1.56-7.81,1.9-3.09.35-6.77.52-11.05.52Z"/><path class="cls-1" d="m378.83,56.76c-4.28,0-7.88-.35-10.79-1.05-2.91-.7-5.25-1.87-7.02-3.51s-3.04-3.87-3.81-6.68c-.77-2.81-1.16-6.34-1.16-10.57v-2.24c0-4.23.39-7.75,1.16-10.57.77-2.81,2.04-5.04,3.81-6.68s4.11-2.81,7.02-3.51c2.91-.7,6.51-1.05,10.79-1.05s7.88.35,10.79,1.05c2.91.7,5.25,1.87,7.02,3.51,1.77,1.64,3.04,3.87,3.81,6.68.77,2.81,1.16,6.34,1.16,10.57v2.24c0,4.23-.39,7.76-1.16,10.57-.77,2.81-2.04,5.04-3.81,6.68-1.77,1.64-4.11,2.81-7.02,3.51s-6.51,1.05-10.79,1.05Zm0-14.42c1.19,0,2.19-.11,2.99-.34.8-.22,1.43-.63,1.9-1.23.47-.6.81-1.46,1.01-2.58.2-1.12.3-2.58.3-4.37v-.07c0-1.79-.1-3.25-.3-4.37-.2-1.12-.54-1.97-1.01-2.54-.47-.57-1.11-.97-1.9-1.19-.8-.22-1.79-.34-2.99-.34s-2.19.11-2.99.34c-.8.22-1.43.62-1.91,1.19-.47.57-.81,1.42-1.01,2.54-.2,1.12-.3,2.58-.3,4.37v.07c0,1.79.1,3.25.3,4.37.2,1.12.53,1.98,1.01,2.58.47.6,1.11,1.01,1.91,1.23.8.22,1.79.34,2.99.34Z"/><path class="cls-1" d="m427.05,56.76c-4.28,0-7.88-.35-10.79-1.05-2.91-.7-5.25-1.87-7.02-3.51s-3.04-3.87-3.81-6.68c-.77-2.81-1.16-6.34-1.16-10.57v-2.24c0-4.23.39-7.75,1.16-10.57.77-2.81,2.04-5.04,3.81-6.68s4.11-2.81,7.02-3.51c2.91-.7,6.51-1.05,10.79-1.05s7.88.35,10.79,1.05c2.91.7,5.25,1.87,7.02,3.51,1.77,1.64,3.04,3.87,3.81,6.68.77,2.81,1.16,6.34,1.16,10.57v2.24c0,4.23-.39,7.76-1.16,10.57-.77,2.81-2.04,5.04-3.81,6.68-1.77,1.64-4.11,2.81-7.02,3.51s-6.51,1.05-10.79,1.05Zm0-14.42c1.19,0,2.19-.11,2.99-.34.8-.22,1.43-.63,1.9-1.23.47-.6.81-1.46,1.01-2.58.2-1.12.3-2.58.3-4.37v-.07c0-1.79-.1-3.25-.3-4.37-.2-1.12-.54-1.97-1.01-2.54-.47-.57-1.11-.97-1.9-1.19-.8-.22-1.79-.34-2.99-.34s-2.19.11-2.99.34c-.8.22-1.43.62-1.91,1.19-.47.57-.81,1.42-1.01,2.54-.2,1.12-.3,2.58-.3,4.37v.07c0,1.79.1,3.25.3,4.37.2,1.12.53,1.98,1.01,2.58.47.6,1.11,1.01,1.91,1.23.8.22,1.79.34,2.99.34Z"/><path class="cls-1" d="m467.72,56.76c-2.74,0-5.07-.32-6.98-.97s-3.49-1.77-4.71-3.36c-1.22-1.59-2.12-3.81-2.69-6.65-.57-2.84-.86-6.45-.86-10.83v-2.24c0-4.38.3-7.99.9-10.83.6-2.84,1.52-5.05,2.76-6.65,1.24-1.59,2.85-2.71,4.82-3.36,1.97-.65,4.32-.97,7.06-.97,2.44,0,4.54.36,6.31,1.08,1.77.72,3.27,1.73,4.52,3.02,1.24,1.3,2.28,2.79,3.1,4.48.82,1.69,1.48,3.49,1.98,5.38l-2.46,8.36c0-1.49-.1-2.71-.3-3.66-.2-.95-.52-1.68-.97-2.2-.45-.52-1.04-.87-1.79-1.05-.75-.17-1.64-.26-2.69-.26-1.3,0-2.38.1-3.25.3-.87.2-1.56.57-2.05,1.12-.5.55-.85,1.33-1.05,2.35-.2,1.02-.3,2.35-.3,4v.07c0,1.64.1,2.96.3,3.96.2,1,.53,1.77,1.01,2.32.47.55,1.12.92,1.94,1.12.82.2,1.85.3,3.1.3,1.14,0,2.1-.09,2.88-.26.77-.17,1.39-.52,1.87-1.05.47-.52.81-1.26,1.01-2.2.2-.95.3-2.17.3-3.66l2.46,8.36c-.5,1.89-1.17,3.69-2.02,5.38-.85,1.69-1.92,3.19-3.21,4.48-1.3,1.3-2.84,2.3-4.63,3.02-1.79.72-3.91,1.08-6.35,1.08Zm30.17-44.81v37.08c0,1.27.01,2.45.04,3.55.02,1.1.04,2.19.04,3.29h-15.91l-.15-8.14.45-3.06-.9-10.23v-1.2l.67-9.26-.75-4.48v-5.98c0-1.94-.01-3.8-.04-5.56-.03-1.77-.05-3.34-.08-4.71-.03-1.37-.04-2.45-.04-3.25h16.73c-.05,1.49-.08,3.22-.08,5.19v6.76Z"/><path class="cls-1" d="m571.61,55.87h-43.32c.05-1.05.07-2.14.07-3.29V7.1c0-1.44-.03-2.86-.07-4.26h16.88c-.05,1.39-.07,2.81-.07,4.26v43.39l-6.2-9.63h23.71c1.47,0,2.96-.01,4.48-.04,1.52-.02,3.03-.04,4.52-.04v15.09Z"/><path class="cls-1" d="m597.09,56.76c-4.28,0-7.88-.35-10.79-1.05-2.91-.7-5.25-1.87-7.02-3.51s-3.04-3.87-3.81-6.68c-.77-2.81-1.16-6.34-1.16-10.57v-2.24c0-4.23.39-7.75,1.16-10.57.77-2.81,2.04-5.04,3.81-6.68s4.11-2.81,7.02-3.51c2.91-.7,6.51-1.05,10.79-1.05s7.88.35,10.79,1.05c2.91.7,5.25,1.87,7.02,3.51,1.77,1.64,3.04,3.87,3.81,6.68.77,2.81,1.16,6.34,1.16,10.57v2.24c0,4.23-.39,7.76-1.16,10.57-.77,2.81-2.04,5.04-3.81,6.68-1.77,1.64-4.11,2.81-7.02,3.51s-6.51,1.05-10.79,1.05Zm0-14.42c1.19,0,2.19-.11,2.99-.34.8-.22,1.43-.63,1.9-1.23.47-.6.81-1.46,1.01-2.58.2-1.12.3-2.58.3-4.37v-.07c0-1.79-.1-3.25-.3-4.37-.2-1.12-.54-1.97-1.01-2.54-.47-.57-1.11-.97-1.9-1.19-.8-.22-1.79-.34-2.99-.34s-2.19.11-2.99.34c-.8.22-1.43.62-1.91,1.19-.47.57-.81,1.42-1.01,2.54-.2,1.12-.3,2.58-.3,4.37v.07c0,1.79.1,3.25.3,4.37.2,1.12.53,1.98,1.01,2.58.47.6,1.11,1.01,1.91,1.23.8.22,1.79.34,2.99.34Z"/><path class="cls-1" d="m645.31,56.76c-4.28,0-7.88-.35-10.79-1.05-2.91-.7-5.25-1.87-7.02-3.51s-3.04-3.87-3.81-6.68c-.77-2.81-1.16-6.34-1.16-10.57v-2.24c0-4.23.39-7.75,1.16-10.57.77-2.81,2.04-5.04,3.81-6.68s4.11-2.81,7.02-3.51c2.91-.7,6.51-1.05,10.79-1.05s7.88.35,10.79,1.05c2.91.7,5.25,1.87,7.02,3.51,1.77,1.64,3.04,3.87,3.81,6.68.77,2.81,1.16,6.34,1.16,10.57v2.24c0,4.23-.39,7.76-1.16,10.57-.77,2.81-2.04,5.04-3.81,6.68-1.77,1.64-4.11,2.81-7.02,3.51s-6.51,1.05-10.79,1.05Zm0-14.42c1.19,0,2.19-.11,2.99-.34.8-.22,1.43-.63,1.9-1.23.47-.6.81-1.46,1.01-2.58.2-1.12.3-2.58.3-4.37v-.07c0-1.79-.1-3.25-.3-4.37-.2-1.12-.54-1.97-1.01-2.54-.47-.57-1.11-.97-1.9-1.19-.8-.22-1.79-.34-2.99-.34s-2.19.11-2.99.34c-.8.22-1.43.62-1.91,1.19-.47.57-.81,1.42-1.01,2.54-.2,1.12-.3,2.58-.3,4.37v.07c0,1.79.1,3.25.3,4.37.2,1.12.53,1.98,1.01,2.58.47.6,1.11,1.01,1.91,1.23.8.22,1.79.34,2.99.34Z"/><path class="cls-1" d="m671.46,44.74V5.23c0-1.94-.03-3.68-.07-5.23h16.58c-.05,1.49-.07,3.24-.07,5.23v45.6c0,1.77.02,3.45.07,5.04h-16.58c.05-1.59.07-3.27.07-5.04v-6.09Zm27.11,11.13l-5.3-9.93c-.95-1.74-1.88-3.48-2.8-5.23-.92-1.74-1.81-3.53-2.65-5.38l5.3,4.11h-7.84v-13.29h7.17l-3.81,2.02c.7-1.39,1.41-2.76,2.13-4.11.72-1.34,1.48-2.69,2.28-4.03l4.78-8.22h18.9l.08.15c-1.1,1.49-2.38,3.31-3.85,5.45-1.47,2.14-2.99,4.38-4.56,6.72-1.57,2.34-3.05,4.57-4.44,6.68-1.39,2.12-2.57,3.92-3.51,5.42l.15-7.92c1,1.64,2.24,3.69,3.73,6.12,1.49,2.44,3.07,5.02,4.74,7.73,1.67,2.71,3.25,5.27,4.74,7.66,1.49,2.39,2.74,4.36,3.73,5.9l-.07.15h-18.9Z"/><path class="cls-1" d="m.85,92.09l2.65-15.18c.16-.88.3-1.67.42-2.38.12-.7.23-1.38.32-2.04h4.21c-.14.66-.27,1.34-.39,2.04-.12.7-.27,1.52-.42,2.44l-2.68,15.14c-.09.59-.19,1.14-.29,1.66-.1.52-.19,1.01-.25,1.46-.07.45-.14.91-.2,1.36H0c.09-.45.17-.9.25-1.36.08-.45.17-.94.27-1.46.1-.52.21-1.09.32-1.7Zm11.34-8.93c.61.91,1.24,1.8,1.88,2.68s1.29,1.77,1.94,2.67,1.3,1.79,1.95,2.7c.66.91,1.31,1.8,1.95,2.68s1.3,1.77,1.95,2.65l-.03.07h-5.02l-4.55-6.45c-.5-.72-1.01-1.48-1.53-2.27-.52-.79-1.1-1.69-1.73-2.68l1.9.92h-5.74l.65-3.63h4.89l-1.97.78c1.09-1.09,2.06-2.05,2.92-2.89.86-.84,1.65-1.61,2.38-2.31l6.04-5.57h5.4l.07.07c-.93.81-1.88,1.66-2.87,2.55-.98.88-1.97,1.77-2.97,2.67-1,.89-1.96,1.77-2.9,2.63-.94.86-1.83,1.67-2.67,2.44-.84.77-1.6,1.46-2.27,2.07l.34-1.77Z"/><path class="cls-1" d="m25.58,92.02l1.87-10.59c.18-.95.33-1.8.44-2.55.11-.75.21-1.43.31-2.04h4.11c-.11.61-.23,1.29-.36,2.04-.12.75-.28,1.58-.46,2.51l-1.87,10.59c-.18.95-.33,1.79-.44,2.51-.11.72-.23,1.43-.34,2.1h-4.11c.14-.68.27-1.38.39-2.1.12-.72.28-1.55.46-2.48Zm3.6-20.61h4.11l-.61,3.36h-4.11l.61-3.36Z"/><path class="cls-1" d="m39.32,80.34h-4.68l.61-3.5h12.43l-.61,3.5h-7.74Zm-2.07,2.82l1.02-5.74c.16-.79.3-1.57.42-2.34.12-.77.23-1.45.32-2.04l4.07-.1c-.14.72-.27,1.42-.39,2.09s-.28,1.51-.46,2.53l-2.21,12.73c-.14.79-.18,1.39-.12,1.8.06.41.31.69.75.85.44.16,1.14.24,2.09.24.38,0,.71,0,.98-.02.27-.01.63-.03,1.09-.05l-.58,3.5c-.5.04-.93.08-1.29.1-.36.02-.8.03-1.32.03-1.36,0-2.47-.1-3.33-.29-.86-.19-1.5-.5-1.92-.93-.42-.43-.66-1.01-.73-1.73-.07-.72-.01-1.62.17-2.68.09-.41.19-.91.29-1.51s.21-1.25.34-1.95c.12-.7.25-1.43.39-2.19.14-.76.27-1.52.41-2.29Z"/><path class="cls-1" d="m56.14,97.01c-1.65,0-3.07-.16-4.24-.48-1.18-.32-2.09-.84-2.73-1.58-.65-.74-1.05-1.74-1.21-3s-.07-2.84.27-4.72l.17-1.02c.34-1.9.76-3.48,1.27-4.74.51-1.26,1.17-2.25,1.97-2.99.8-.73,1.8-1.26,3-1.58,1.2-.32,2.64-.48,4.31-.48s3.12.14,4.26.42c1.14.28,2.04.74,2.68,1.38.65.63,1.06,1.48,1.24,2.55.18,1.06.12,2.37-.17,3.9l-4.01.14c.16-.86.2-1.59.14-2.19s-.26-1.09-.58-1.46-.78-.65-1.37-.83c-.6-.18-1.39-.27-2.36-.27s-1.84.1-2.55.29c-.7.19-1.3.53-1.78,1-.49.48-.89,1.13-1.22,1.97-.33.84-.61,1.92-.83,3.26l-.07.27c-.2,1.31-.29,2.39-.27,3.24.02.85.2,1.51.53,1.99.33.48.81.81,1.44,1,.63.19,1.44.29,2.41.29s1.8-.09,2.48-.27c.68-.18,1.24-.45,1.7-.81.45-.36.82-.85,1.1-1.46.28-.61.49-1.35.63-2.21l3.97.1c-.27,1.52-.64,2.8-1.1,3.85-.46,1.05-1.09,1.91-1.87,2.56-.78.66-1.76,1.13-2.94,1.43-1.18.29-2.6.44-4.28.44Z"/><path class="cls-1" d="m69.26,92.09l2.85-16.3c.18-.95.33-1.77.44-2.44.11-.68.23-1.39.34-2.14h4.14c-.02.14-.1.52-.22,1.15-.12.63-.27,1.38-.44,2.22-.17.85-.34,1.7-.51,2.55s-.32,1.59-.44,2.22c-.12.63-.21,1.03-.25,1.19l-.51,1.39-.37,4.45-.98,5.7c-.11.57-.21,1.09-.29,1.56-.08.48-.16.95-.24,1.41-.08.46-.16.98-.25,1.54h-4.11c.18-.81.32-1.54.42-2.17.1-.63.24-1.41.42-2.34Zm18.2-3.8l-.68,3.87c-.09.52-.18,1.01-.25,1.46-.08.45-.16.92-.24,1.41-.08.49-.16,1.01-.25,1.58h-4.07c.11-.5.21-.96.29-1.38.08-.42.16-.87.24-1.34.08-.48.17-1.03.29-1.66l1.15-6.55c.2-1.13.29-2.06.25-2.78-.03-.72-.19-1.28-.48-1.68-.28-.4-.71-.67-1.27-.83-.57-.16-1.29-.24-2.17-.24s-1.65.08-2.31.25c-.66.17-1.22.48-1.68.92s-.85,1.07-1.15,1.88c-.31.81-.58,1.88-.83,3.19l-1.19-.81c.38-1.74.87-3.2,1.44-4.36s1.25-2.1,2.02-2.8c.77-.7,1.63-1.21,2.58-1.51.95-.31,2.01-.46,3.19-.46s2.23.12,3.09.37c.86.25,1.54.65,2.05,1.19.51.54.84,1.25,1,2.12.16.87.12,1.94-.1,3.21-.05.32-.11.7-.2,1.14s-.19.97-.31,1.58c-.11.61-.25,1.36-.41,2.24Z"/><path class="cls-1" d="m99.47,97.01c-1.72,0-3.17-.16-4.36-.49-1.19-.33-2.12-.87-2.8-1.61-.68-.75-1.1-1.75-1.27-3-.17-1.26-.08-2.81.25-4.67l.17-1.02c.34-1.9.77-3.48,1.31-4.74.53-1.26,1.21-2.25,2.04-2.99.83-.73,1.84-1.26,3.04-1.58,1.2-.32,2.63-.48,4.28-.48s3.08.16,4.21.48c1.13.32,2.01.85,2.65,1.6.63.75,1.02,1.75,1.17,3,.15,1.26.05,2.82-.29,4.7-.02.16-.05.34-.08.54-.03.2-.07.4-.1.59-.03.19-.07.39-.12.59h-15.51l.54-3.02h13.51l-2.65,2.41c.05-.18.08-.35.1-.51.02-.16.05-.31.08-.46.03-.15.06-.31.08-.49.23-1.24.33-2.27.32-3.07-.01-.8-.16-1.43-.46-1.88s-.74-.77-1.32-.95c-.59-.18-1.37-.27-2.34-.27s-1.82.1-2.55.29c-.72.19-1.32.53-1.78,1-.46.48-.87,1.14-1.21,2-.34.86-.62,1.97-.85,3.33l-.1.54c-.23,1.31-.32,2.4-.29,3.26.03.86.21,1.53.54,2.02.33.49.82.83,1.48,1.04.66.2,1.5.31,2.55.31s1.86-.07,2.53-.2c.67-.14,1.19-.35,1.58-.65.38-.29.68-.67.9-1.12.21-.45.38-.98.49-1.6l4.01.14c-.23,1.25-.55,2.31-.97,3.19-.42.88-.98,1.6-1.68,2.16-.7.55-1.62.96-2.77,1.22-1.14.26-2.59.39-4.33.39Z"/><path class="cls-1" d="m112.51,92.12l1.94-11.03c.16-.81.29-1.55.41-2.21.11-.66.21-1.33.31-2.04h3.8l-.58,3.7-.44,1.39-.37,4.45-1.02,5.84c-.09.59-.18,1.13-.27,1.61-.09.49-.18.94-.25,1.37-.08.43-.15.89-.22,1.39h-4.11c.09-.5.18-.98.27-1.44.09-.46.18-.94.27-1.43.09-.49.18-1.02.27-1.61Zm18.2-3.53l-.65,3.6c-.09.5-.18.98-.25,1.44-.08.46-.16.93-.24,1.41-.08.48-.16,1-.25,1.56h-4.07c.11-.52.21-.98.29-1.39.08-.41.16-.85.24-1.32.08-.48.17-1.04.29-1.7l1.15-6.52c.2-1.13.29-2.06.25-2.78-.03-.72-.19-1.28-.48-1.68-.28-.4-.71-.67-1.27-.83-.57-.16-1.29-.24-2.17-.24s-1.65.08-2.31.25c-.66.17-1.22.48-1.68.92s-.85,1.07-1.15,1.88c-.31.81-.58,1.88-.83,3.19l-1.19-.81c.38-1.74.87-3.2,1.44-4.36s1.24-2.1,2-2.8,1.62-1.21,2.58-1.51c.96-.31,2.02-.46,3.17-.46s2.23.12,3.11.37c.87.25,1.56.65,2.07,1.19.51.54.84,1.25,1,2.12.16.87.12,1.94-.1,3.21-.05.32-.11.7-.2,1.15-.09.45-.2,1.01-.32,1.68-.12.67-.27,1.48-.42,2.43Z"/><path class="cls-1" d="m146.29,84.42l.65-3.67c.11-.68.22-1.32.32-1.92.1-.6.2-1.26.29-1.99h4.07c-.07.43-.14.84-.2,1.24-.07.4-.14.8-.22,1.21-.08.41-.16.87-.25,1.39l-1.26,7.1c-.18,1.11-.26,2.03-.24,2.75.02.72.16,1.29.42,1.7s.67.69,1.22.85c.55.16,1.27.24,2.16.24s1.64-.08,2.27-.25c.63-.17,1.18-.49,1.65-.95.46-.46.86-1.13,1.19-1.99.33-.86.61-1.97.83-3.33l1.19.81c-.39,1.79-.88,3.29-1.48,4.5-.6,1.21-1.29,2.17-2.07,2.89-.78.71-1.66,1.23-2.65,1.54-.98.32-2.08.48-3.28.48s-2.2-.12-3-.37c-.8-.25-1.44-.65-1.92-1.19-.48-.54-.78-1.26-.9-2.14-.12-.88-.07-1.95.15-3.19.04-.27.1-.59.17-.97s.15-.8.24-1.29c.09-.49.19-1.02.31-1.6.11-.58.23-1.19.34-1.85Zm17.93-3.09l-1.97,11.03c-.14.81-.26,1.55-.37,2.21-.11.66-.23,1.34-.34,2.04h-3.8l.58-3.7.48-1.39.41-4.72.98-5.57c.11-.61.21-1.15.29-1.63.08-.48.15-.93.22-1.38s.14-.9.2-1.38h4.11c-.09.5-.18.97-.25,1.43-.08.45-.16.92-.25,1.41-.09.49-.18,1.04-.27,1.65Z"/><path class="cls-1" d="m171.96,80.34h-4.68l.61-3.5h12.43l-.61,3.5h-7.74Zm-2.07,2.82l1.02-5.74c.16-.79.3-1.57.42-2.34.12-.77.23-1.45.32-2.04l4.07-.1c-.14.72-.27,1.42-.39,2.09s-.28,1.51-.46,2.53l-2.21,12.73c-.14.79-.18,1.39-.12,1.8.06.41.31.69.75.85.44.16,1.14.24,2.09.24.38,0,.71,0,.98-.02.27-.01.63-.03,1.09-.05l-.58,3.5c-.5.04-.93.08-1.29.1-.36.02-.8.03-1.32.03-1.36,0-2.47-.1-3.33-.29-.86-.19-1.5-.5-1.92-.93-.42-.43-.66-1.01-.73-1.73-.07-.72-.01-1.62.17-2.68.09-.41.19-.91.29-1.51s.21-1.25.34-1.95c.12-.7.25-1.43.39-2.19.14-.76.27-1.52.41-2.29Z"/><path class="cls-1" d="m189.05,97.01c-1.72,0-3.17-.16-4.36-.49-1.19-.33-2.12-.87-2.8-1.61-.68-.75-1.1-1.75-1.27-3-.17-1.26-.08-2.81.25-4.67l.17-1.02c.34-1.9.77-3.48,1.31-4.74.53-1.26,1.21-2.25,2.04-2.99.83-.73,1.84-1.26,3.04-1.58,1.2-.32,2.63-.48,4.28-.48s3.08.16,4.21.48c1.13.32,2.01.85,2.65,1.6.63.75,1.02,1.75,1.17,3,.15,1.26.05,2.82-.29,4.7-.02.16-.05.34-.08.54-.03.2-.07.4-.1.59-.03.19-.07.39-.12.59h-15.51l.54-3.02h13.51l-2.65,2.41c.05-.18.08-.35.1-.51.02-.16.05-.31.08-.46.03-.15.06-.31.08-.49.23-1.24.33-2.27.32-3.07-.01-.8-.16-1.43-.46-1.88s-.74-.77-1.32-.95c-.59-.18-1.37-.27-2.34-.27s-1.82.1-2.55.29c-.72.19-1.32.53-1.78,1-.46.48-.87,1.14-1.21,2-.34.86-.62,1.97-.85,3.33l-.1.54c-.23,1.31-.32,2.4-.29,3.26.03.86.21,1.53.54,2.02.33.49.82.83,1.48,1.04.66.2,1.5.31,2.55.31s1.86-.07,2.53-.2c.67-.14,1.19-.35,1.58-.65.38-.29.68-.67.9-1.12.21-.45.38-.98.49-1.6l4.01.14c-.23,1.25-.55,2.31-.97,3.19-.42.88-.98,1.6-1.68,2.16-.7.55-1.62.96-2.77,1.22-1.14.26-2.59.39-4.33.39Z"/><path class="cls-1" d="m202.09,92.12l1.94-11.03c.16-.81.29-1.55.41-2.21.11-.66.21-1.33.31-2.04h3.8l-.58,3.7-.44,1.39-.37,4.45-1.02,5.84c-.09.59-.18,1.13-.27,1.61-.09.49-.18.94-.25,1.37-.08.43-.15.89-.22,1.39h-4.11c.09-.5.18-.98.27-1.44.09-.46.18-.94.27-1.43.09-.49.18-1.02.27-1.61Zm18.2-3.53l-.65,3.6c-.09.5-.18.98-.25,1.44-.08.46-.16.93-.24,1.41-.08.48-.16,1-.25,1.56h-4.07c.11-.52.21-.98.29-1.39.08-.41.16-.85.24-1.32.08-.48.17-1.04.29-1.7l1.15-6.52c.2-1.13.29-2.06.25-2.78-.03-.72-.19-1.28-.48-1.68-.28-.4-.71-.67-1.27-.83-.57-.16-1.29-.24-2.17-.24s-1.65.08-2.31.25c-.66.17-1.22.48-1.68.92s-.85,1.07-1.15,1.88c-.31.81-.58,1.88-.83,3.19l-1.19-.81c.38-1.74.87-3.2,1.44-4.36s1.24-2.1,2-2.8,1.62-1.21,2.58-1.51c.96-.31,2.02-.46,3.17-.46s2.23.12,3.11.37c.87.25,1.56.65,2.07,1.19.51.54.84,1.25,1,2.12.16.87.12,1.94-.1,3.21-.05.32-.11.7-.2,1.15-.09.45-.2,1.01-.32,1.68-.12.67-.27,1.48-.42,2.43Z"/><path class="cls-1" d="m231.42,97.01c-1.81,0-3.29-.1-4.45-.31-1.15-.2-2.04-.55-2.65-1.05-.61-.5-.99-1.19-1.14-2.09-.15-.89-.11-2.02.12-3.38l3.87-.1-.1.48c-.11.63-.13,1.15-.05,1.56.08.41.28.73.61.97s.83.41,1.49.51c.67.1,1.53.15,2.6.15.84,0,1.54-.04,2.1-.12.57-.08,1.02-.21,1.36-.39s.6-.41.78-.7c.18-.28.32-.64.41-1.07.07-.41.06-.76-.02-1.05-.08-.29-.28-.57-.61-.81-.33-.25-.85-.49-1.56-.71-.71-.23-1.67-.46-2.87-.71-1.43-.27-2.58-.57-3.46-.9s-1.55-.73-2-1.21c-.45-.48-.74-1.05-.85-1.71-.11-.67-.09-1.47.07-2.39.18-1.02.46-1.88.83-2.6s.88-1.28,1.53-1.71c.65-.43,1.48-.74,2.5-.93,1.02-.19,2.26-.29,3.73-.29,1.77,0,3.2.11,4.29.34,1.1.23,1.92.59,2.48,1.1.55.51.89,1.17,1.02,1.97.12.8.08,1.78-.12,2.94l-3.94.1.1-.51c.09-.48.1-.89.02-1.24-.08-.35-.27-.63-.56-.85-.29-.21-.74-.37-1.32-.46-.59-.09-1.36-.14-2.31-.14-.72,0-1.35.03-1.87.1-.52.07-.96.19-1.31.36-.35.17-.62.39-.8.65-.18.26-.31.57-.37.93-.07.45-.07.84,0,1.17.07.33.25.61.56.85.31.24.77.46,1.39.66s1.45.39,2.5.54c1.63.27,2.95.59,3.95.97,1.01.37,1.75.82,2.24,1.34.49.52.79,1.11.92,1.77.12.66.11,1.42-.05,2.27-.2,1.09-.49,2-.85,2.73-.36.74-.88,1.32-1.54,1.75-.67.43-1.54.74-2.61.93-1.08.19-2.43.29-4.06.29Z"/><path class="cls-1" d="m243.79,92.02l1.87-10.59c.18-.95.33-1.8.44-2.55.11-.75.21-1.43.31-2.04h4.11c-.11.61-.23,1.29-.36,2.04-.12.75-.28,1.58-.46,2.51l-1.87,10.59c-.18.95-.33,1.79-.44,2.51-.11.72-.23,1.43-.34,2.1h-4.11c.14-.68.27-1.38.39-2.1.12-.72.28-1.55.46-2.48Zm3.6-20.61h4.11l-.61,3.36h-4.11l.61-3.36Z"/><path class="cls-1" d="m252.35,92.02l2.85-16.23c.16-.95.31-1.8.44-2.55.14-.75.25-1.43.34-2.04h4.11c-.11.61-.24,1.29-.37,2.04-.14.75-.29,1.58-.48,2.51l-2.85,16.23c-.18.95-.33,1.79-.44,2.51-.11.72-.23,1.43-.34,2.1h-4.11c.14-.68.27-1.38.39-2.1.12-.72.28-1.55.46-2.48Z"/><path class="cls-1" d="m268.25,97.01c-1.81,0-3.29-.1-4.45-.31-1.15-.2-2.04-.55-2.65-1.05-.61-.5-.99-1.19-1.14-2.09-.15-.89-.11-2.02.12-3.38l3.87-.1-.1.48c-.11.63-.13,1.15-.05,1.56.08.41.28.73.61.97s.83.41,1.49.51c.67.1,1.53.15,2.6.15.84,0,1.54-.04,2.1-.12.57-.08,1.02-.21,1.36-.39s.6-.41.78-.7c.18-.28.32-.64.41-1.07.07-.41.06-.76-.02-1.05-.08-.29-.28-.57-.61-.81-.33-.25-.85-.49-1.56-.71-.71-.23-1.67-.46-2.87-.71-1.43-.27-2.58-.57-3.46-.9s-1.55-.73-2-1.21c-.45-.48-.74-1.05-.85-1.71-.11-.67-.09-1.47.07-2.39.18-1.02.46-1.88.83-2.6s.88-1.28,1.53-1.71c.65-.43,1.48-.74,2.5-.93,1.02-.19,2.26-.29,3.73-.29,1.77,0,3.2.11,4.29.34,1.1.23,1.92.59,2.48,1.1.55.51.89,1.17,1.02,1.97.12.8.08,1.78-.12,2.94l-3.94.1.1-.51c.09-.48.1-.89.02-1.24-.08-.35-.27-.63-.56-.85-.29-.21-.74-.37-1.32-.46-.59-.09-1.36-.14-2.31-.14-.72,0-1.35.03-1.87.1-.52.07-.96.19-1.31.36-.35.17-.62.39-.8.65-.18.26-.31.57-.37.93-.07.45-.07.84,0,1.17.07.33.25.61.56.85.31.24.77.46,1.39.66s1.45.39,2.5.54c1.63.27,2.95.59,3.95.97,1.01.37,1.75.82,2.24,1.34.49.52.79,1.11.92,1.77.12.66.11,1.42-.05,2.27-.2,1.09-.49,2-.85,2.73-.36.74-.88,1.32-1.54,1.75-.67.43-1.54.74-2.61.93-1.08.19-2.43.29-4.06.29Z"/><path class="cls-1" d="m298.71,97.01c-1.72,0-3.17-.16-4.36-.49-1.19-.33-2.12-.87-2.8-1.61-.68-.75-1.1-1.75-1.27-3-.17-1.26-.08-2.81.25-4.67l.17-1.02c.34-1.9.77-3.48,1.31-4.74.53-1.26,1.21-2.25,2.04-2.99.83-.73,1.84-1.26,3.04-1.58,1.2-.32,2.63-.48,4.28-.48s3.08.16,4.21.48c1.13.32,2.01.85,2.65,1.6.63.75,1.02,1.75,1.17,3,.15,1.26.05,2.82-.29,4.7-.02.16-.05.34-.08.54-.03.2-.07.4-.1.59-.03.19-.07.39-.12.59h-15.51l.54-3.02h13.51l-2.65,2.41c.05-.18.08-.35.1-.51.02-.16.05-.31.08-.46.03-.15.06-.31.08-.49.23-1.24.33-2.27.32-3.07-.01-.8-.16-1.43-.46-1.88s-.74-.77-1.32-.95c-.59-.18-1.37-.27-2.34-.27s-1.82.1-2.55.29c-.72.19-1.32.53-1.78,1-.46.48-.87,1.14-1.21,2-.34.86-.62,1.97-.85,3.33l-.1.54c-.23,1.31-.32,2.4-.29,3.26.03.86.21,1.53.54,2.02.33.49.82.83,1.48,1.04.66.2,1.5.31,2.55.31s1.86-.07,2.53-.2c.67-.14,1.19-.35,1.58-.65.38-.29.68-.67.9-1.12.21-.45.38-.98.49-1.6l4.01.14c-.23,1.25-.55,2.31-.97,3.19-.42.88-.98,1.6-1.68,2.16-.7.55-1.62.96-2.77,1.22-1.14.26-2.59.39-4.33.39Z"/><path class="cls-1" d="m311.81,92.02l2.85-16.23c.16-.95.31-1.8.44-2.55.14-.75.25-1.43.34-2.04h4.11c-.11.61-.24,1.29-.37,2.04-.14.75-.29,1.58-.48,2.51l-2.85,16.23c-.18.95-.33,1.79-.44,2.51-.11.72-.23,1.43-.34,2.1h-4.11c.14-.68.27-1.38.39-2.1.12-.72.28-1.55.46-2.48Z"/><path class="cls-1" d="m328.59,97.01c-1.72,0-3.17-.16-4.36-.49-1.19-.33-2.12-.87-2.8-1.61-.68-.75-1.1-1.75-1.27-3-.17-1.26-.08-2.81.25-4.67l.17-1.02c.34-1.9.77-3.48,1.31-4.74.53-1.26,1.21-2.25,2.04-2.99.83-.73,1.84-1.26,3.04-1.58,1.2-.32,2.63-.48,4.28-.48s3.08.16,4.21.48c1.13.32,2.01.85,2.65,1.6.63.75,1.02,1.75,1.17,3,.15,1.26.05,2.82-.29,4.7-.02.16-.05.34-.08.54-.03.2-.07.4-.1.59-.03.19-.07.39-.12.59h-15.51l.54-3.02h13.51l-2.65,2.41c.05-.18.08-.35.1-.51.02-.16.05-.31.08-.46.03-.15.06-.31.08-.49.23-1.24.33-2.27.32-3.07-.01-.8-.16-1.43-.46-1.88s-.74-.77-1.32-.95c-.59-.18-1.37-.27-2.34-.27s-1.82.1-2.55.29c-.72.19-1.32.53-1.78,1-.46.48-.87,1.14-1.21,2-.34.86-.62,1.97-.85,3.33l-.1.54c-.23,1.31-.32,2.4-.29,3.26.03.86.21,1.53.54,2.02.33.49.82.83,1.48,1.04.66.2,1.5.31,2.55.31s1.86-.07,2.53-.2c.67-.14,1.19-.35,1.58-.65.38-.29.68-.67.9-1.12.21-.45.38-.98.49-1.6l4.01.14c-.23,1.25-.55,2.31-.97,3.19-.42.88-.98,1.6-1.68,2.16-.7.55-1.62.96-2.77,1.22-1.14.26-2.59.39-4.33.39Z"/><path class="cls-1" d="m351.46,96.6h-6.08c-.14-.97-.32-2.12-.54-3.45-.23-1.32-.47-2.74-.73-4.24-.26-1.5-.52-3.01-.78-4.52-.26-1.5-.51-2.91-.75-4.21-.24-1.3-.45-2.42-.63-3.34h4.45l1.12,8.56c.14,1.18.29,2.38.46,3.62.17,1.23.33,2.44.49,3.62.16,1.18.32,2.24.48,3.19l-.92-3.06h2.1l-1.97,3.06c.43-.9.93-1.94,1.49-3.09.57-1.15,1.15-2.36,1.77-3.63.61-1.27,1.22-2.5,1.83-3.7l4.28-8.56h4.45c-.5.93-1.11,2.04-1.83,3.34-.72,1.3-1.48,2.7-2.27,4.21-.79,1.51-1.59,3.01-2.39,4.52-.8,1.51-1.55,2.92-2.24,4.24-.69,1.32-1.28,2.47-1.78,3.45Z"/><path class="cls-1" d="m367.54,97.01c-1.38,0-2.55-.12-3.5-.36-.95-.24-1.69-.6-2.22-1.1-.53-.5-.87-1.14-1-1.94-.14-.79-.11-1.74.07-2.85.2-1.13.49-2.1.87-2.9.37-.8.88-1.47,1.51-1.99.63-.52,1.44-.9,2.41-1.14.97-.24,2.15-.36,3.53-.36s2.42.11,3.33.34,1.66.56,2.26,1c.6.44,1.02.99,1.26,1.65.24.66.31,1.41.22,2.27l-1.26.2c.07-.41.06-.76-.03-1.07s-.31-.57-.64-.78c-.34-.21-.81-.38-1.41-.49s-1.39-.17-2.36-.17-1.87.06-2.55.19c-.68.12-1.21.32-1.6.58-.38.26-.68.6-.88,1.02-.2.42-.36.93-.48,1.54-.14.79-.1,1.41.12,1.85.21.44.67.76,1.36.95.69.19,1.63.29,2.83.29.97,0,1.79-.06,2.44-.17.66-.11,1.19-.29,1.61-.54.42-.25.74-.57.97-.95.23-.38.38-.85.48-1.39l1.15.31c-.23.88-.56,1.7-1,2.44s-.99,1.39-1.65,1.92c-.66.53-1.46.94-2.43,1.22-.96.28-2.1.42-3.41.42Zm11.37-6.86c-.18,1.02-.36,2.01-.53,2.99-.17.97-.37,2.13-.59,3.46h-3.67l.54-3.36.27-1.26-.07-1.29.14-.85.71-1.26-.37-1.22.58-3.26c.16-.81.21-1.49.15-2.02-.06-.53-.24-.96-.56-1.29-.32-.33-.77-.56-1.36-.7-.59-.14-1.36-.2-2.31-.2s-1.68.05-2.26.15c-.58.1-1.04.26-1.38.48-.34.22-.6.52-.78.9-.18.39-.32.85-.41,1.39l-3.87-.1c.18-1.09.46-2.02.85-2.82.38-.79.92-1.44,1.61-1.95s1.58-.89,2.67-1.14c1.09-.25,2.4-.37,3.94-.37,1.74,0,3.17.14,4.29.41,1.12.27,1.97.69,2.56,1.24.59.55.97,1.26,1.14,2.1s.15,1.85-.05,3c-.11.68-.22,1.28-.32,1.8-.1.52-.2,1.03-.29,1.53-.09.5-.19,1.03-.29,1.6-.1.57-.22,1.25-.36,2.04Z"/><path class="cls-1" d="m387.96,80.34h-4.68l.61-3.5h12.42l-.61,3.5h-7.74Zm-2.07,2.82l1.02-5.74c.16-.79.3-1.57.42-2.34.12-.77.23-1.45.32-2.04l4.07-.1c-.14.72-.27,1.42-.39,2.09s-.28,1.51-.46,2.53l-2.21,12.73c-.14.79-.18,1.39-.12,1.8.06.41.3.69.75.85.44.16,1.14.24,2.09.24.38,0,.71,0,.98-.02.27-.01.63-.03,1.09-.05l-.58,3.5c-.5.04-.93.08-1.29.1-.36.02-.8.03-1.32.03-1.36,0-2.47-.1-3.33-.29s-1.5-.5-1.92-.93c-.42-.43-.66-1.01-.73-1.73-.07-.72-.01-1.62.17-2.68.09-.41.19-.91.29-1.51s.21-1.25.34-1.95c.12-.7.25-1.43.39-2.19.14-.76.27-1.52.41-2.29Z"/><path class="cls-1" d="m397.07,92.02l1.87-10.59c.18-.95.33-1.8.44-2.55.11-.75.21-1.43.31-2.04h4.11c-.11.61-.23,1.29-.36,2.04-.12.75-.28,1.58-.46,2.51l-1.87,10.59c-.18.95-.33,1.79-.44,2.51-.11.72-.23,1.43-.34,2.1h-4.11c.14-.68.27-1.38.39-2.1.12-.72.28-1.55.46-2.48Zm3.6-20.61h4.11l-.61,3.36h-4.11l.61-3.36Z"/><path class="cls-1" d="m413.71,97.01c-1.65,0-3.07-.16-4.26-.48-1.19-.32-2.12-.84-2.78-1.58-.67-.74-1.09-1.74-1.26-3-.17-1.27-.08-2.84.25-4.72l.17-1.02c.32-1.95.74-3.55,1.27-4.8.53-1.26,1.21-2.25,2.02-2.97.81-.72,1.83-1.24,3.06-1.54,1.22-.31,2.68-.46,4.38-.46s3.13.16,4.29.49c1.17.33,2.09.87,2.78,1.61.69.75,1.12,1.74,1.29,2.99.17,1.25.08,2.81-.25,4.69l-.17,1.02c-.34,1.9-.77,3.49-1.29,4.75-.52,1.27-1.2,2.27-2.04,3-.84.74-1.86,1.26-3.07,1.56-1.21.31-2.68.46-4.4.46Zm.27-3.63c1.02,0,1.89-.1,2.61-.29.72-.19,1.33-.53,1.82-1,.49-.48.9-1.14,1.24-1.99.34-.85.61-1.93.81-3.24l.07-.27c.23-1.31.32-2.39.29-3.24s-.21-1.51-.53-1.99c-.32-.48-.8-.81-1.46-1-.66-.19-1.49-.29-2.51-.29s-1.89.1-2.61.29c-.72.19-1.33.53-1.82,1-.49.48-.89,1.14-1.22,1.99s-.61,1.93-.83,3.24l-.07.27c-.2,1.31-.29,2.39-.27,3.24.02.85.2,1.51.53,1.99s.82.81,1.46,1c.65.19,1.48.29,2.5.29Z"/><path class="cls-1" d="m427.32,92.12l1.94-11.03c.16-.81.29-1.55.41-2.21.11-.66.21-1.33.31-2.04h3.8l-.58,3.7-.44,1.39-.37,4.45-1.02,5.84c-.09.59-.18,1.13-.27,1.61-.09.49-.18.94-.25,1.37-.08.43-.15.89-.22,1.39h-4.11c.09-.5.18-.98.27-1.44.09-.46.18-.94.27-1.43.09-.49.18-1.02.27-1.61Zm18.2-3.53l-.64,3.6c-.09.5-.18.98-.25,1.44-.08.46-.16.93-.24,1.41-.08.48-.17,1-.25,1.56h-4.07c.11-.52.21-.98.29-1.39.08-.41.16-.85.24-1.32.08-.48.18-1.04.29-1.7l1.15-6.52c.2-1.13.29-2.06.25-2.78-.03-.72-.19-1.28-.47-1.68-.28-.4-.71-.67-1.27-.83-.57-.16-1.29-.24-2.17-.24s-1.65.08-2.31.25c-.66.17-1.22.48-1.68.92-.46.44-.85,1.07-1.15,1.88-.31.81-.58,1.88-.83,3.19l-1.19-.81c.38-1.74.87-3.2,1.44-4.36s1.24-2.1,2-2.8c.76-.7,1.62-1.21,2.58-1.51.96-.31,2.02-.46,3.17-.46s2.24.12,3.11.37,1.56.65,2.07,1.19c.51.54.84,1.25,1,2.12.16.87.12,1.94-.1,3.21-.05.32-.11.7-.2,1.15-.09.45-.2,1.01-.32,1.68-.12.67-.27,1.48-.42,2.43Z"/><path class="cls-1" d="m467.41,97.01c-1.65,0-3.07-.16-4.24-.48-1.18-.32-2.09-.84-2.73-1.58-.64-.74-1.05-1.74-1.21-3s-.07-2.84.27-4.72l.17-1.02c.34-1.9.76-3.48,1.27-4.74.51-1.26,1.17-2.25,1.97-2.99.8-.73,1.8-1.26,3-1.58,1.2-.32,2.64-.48,4.31-.48s3.12.14,4.26.42c1.14.28,2.04.74,2.68,1.38.64.63,1.06,1.48,1.24,2.55.18,1.06.12,2.37-.17,3.9l-4.01.14c.16-.86.2-1.59.14-2.19-.07-.6-.26-1.09-.58-1.46-.32-.37-.78-.65-1.38-.83-.6-.18-1.39-.27-2.36-.27s-1.84.1-2.55.29c-.7.19-1.3.53-1.78,1-.49.48-.89,1.13-1.22,1.97-.33.84-.61,1.92-.83,3.26l-.07.27c-.2,1.31-.29,2.39-.27,3.24.02.85.2,1.51.53,1.99s.81.81,1.44,1c.63.19,1.44.29,2.41.29s1.8-.09,2.48-.27,1.24-.45,1.7-.81c.45-.36.82-.85,1.1-1.46.28-.61.49-1.35.63-2.21l3.97.1c-.27,1.52-.64,2.8-1.1,3.85s-1.09,1.91-1.87,2.56c-.78.66-1.76,1.13-2.94,1.43-1.18.29-2.6.44-4.28.44Z"/><path class="cls-1" d="m488.76,97.01c-1.65,0-3.07-.16-4.26-.48-1.19-.32-2.12-.84-2.78-1.58-.67-.74-1.09-1.74-1.26-3-.17-1.27-.08-2.84.25-4.72l.17-1.02c.32-1.95.74-3.55,1.27-4.8.53-1.26,1.21-2.25,2.02-2.97.81-.72,1.83-1.24,3.06-1.54,1.22-.31,2.68-.46,4.38-.46s3.13.16,4.29.49c1.17.33,2.09.87,2.78,1.61.69.75,1.12,1.74,1.29,2.99.17,1.25.08,2.81-.25,4.69l-.17,1.02c-.34,1.9-.77,3.49-1.29,4.75-.52,1.27-1.2,2.27-2.04,3-.84.74-1.86,1.26-3.07,1.56-1.21.31-2.68.46-4.4.46Zm.27-3.63c1.02,0,1.89-.1,2.61-.29.72-.19,1.33-.53,1.82-1,.49-.48.9-1.14,1.24-1.99.34-.85.61-1.93.81-3.24l.07-.27c.23-1.31.32-2.39.29-3.24s-.21-1.51-.53-1.99c-.32-.48-.8-.81-1.46-1-.66-.19-1.49-.29-2.51-.29s-1.89.1-2.61.29c-.72.19-1.33.53-1.82,1-.49.48-.89,1.14-1.22,1.99s-.61,1.93-.83,3.24l-.07.27c-.2,1.31-.29,2.39-.27,3.24.02.85.2,1.51.53,1.99s.82.81,1.46,1c.65.19,1.48.29,2.5.29Z"/><path class="cls-1" d="m502.43,92.02l2.85-16.23c.16-.95.3-1.8.44-2.55.14-.75.25-1.43.34-2.04h4.11c-.11.61-.24,1.29-.37,2.04-.14.75-.29,1.58-.48,2.51l-2.85,16.23c-.18.95-.33,1.79-.44,2.51-.11.72-.23,1.43-.34,2.1h-4.11c.14-.68.27-1.38.39-2.1.12-.72.28-1.55.46-2.48Z"/><path class="cls-1" d="m511,92.02l2.85-16.23c.16-.95.3-1.8.44-2.55.14-.75.25-1.43.34-2.04h4.11c-.11.61-.24,1.29-.37,2.04-.14.75-.29,1.58-.48,2.51l-2.85,16.23c-.18.95-.33,1.79-.44,2.51-.11.72-.23,1.43-.34,2.1h-4.11c.14-.68.27-1.38.39-2.1.12-.72.28-1.55.46-2.48Z"/><path class="cls-1" d="m527.78,97.01c-1.72,0-3.17-.16-4.36-.49-1.19-.33-2.12-.87-2.8-1.61-.68-.75-1.1-1.75-1.27-3-.17-1.26-.08-2.81.25-4.67l.17-1.02c.34-1.9.78-3.48,1.31-4.74.53-1.26,1.21-2.25,2.04-2.99.83-.73,1.84-1.26,3.04-1.58,1.2-.32,2.62-.48,4.28-.48s3.08.16,4.21.48c1.13.32,2.01.85,2.65,1.6.63.75,1.02,1.75,1.17,3,.15,1.26.05,2.82-.29,4.7-.02.16-.05.34-.08.54s-.07.4-.1.59c-.03.19-.07.39-.12.59h-15.51l.54-3.02h13.51l-2.65,2.41c.04-.18.08-.35.1-.51.02-.16.05-.31.08-.46.03-.15.06-.31.08-.49.23-1.24.33-2.27.32-3.07-.01-.8-.16-1.43-.46-1.88-.29-.45-.74-.77-1.32-.95-.59-.18-1.37-.27-2.34-.27s-1.82.1-2.55.29c-.72.19-1.32.53-1.78,1-.46.48-.87,1.14-1.21,2-.34.86-.62,1.97-.85,3.33l-.1.54c-.23,1.31-.32,2.4-.29,3.26.03.86.21,1.53.54,2.02.33.49.82.83,1.48,1.04s1.5.31,2.55.31,1.86-.07,2.53-.2c.67-.14,1.19-.35,1.58-.65.38-.29.68-.67.9-1.12.21-.45.38-.98.49-1.6l4.01.14c-.23,1.25-.55,2.31-.97,3.19-.42.88-.98,1.6-1.68,2.16-.7.55-1.62.96-2.77,1.22-1.14.26-2.59.39-4.33.39Z"/><path class="cls-1" d="m548.84,97.01c-1.65,0-3.07-.16-4.24-.48-1.18-.32-2.09-.84-2.73-1.58-.64-.74-1.05-1.74-1.21-3s-.07-2.84.27-4.72l.17-1.02c.34-1.9.76-3.48,1.27-4.74.51-1.26,1.17-2.25,1.97-2.99.8-.73,1.8-1.26,3-1.58,1.2-.32,2.64-.48,4.31-.48s3.12.14,4.26.42c1.14.28,2.04.74,2.68,1.38.64.63,1.06,1.48,1.24,2.55.18,1.06.12,2.37-.17,3.9l-4.01.14c.16-.86.2-1.59.14-2.19-.07-.6-.26-1.09-.58-1.46-.32-.37-.78-.65-1.38-.83-.6-.18-1.39-.27-2.36-.27s-1.84.1-2.55.29c-.7.19-1.3.53-1.78,1-.49.48-.89,1.13-1.22,1.97-.33.84-.61,1.92-.83,3.26l-.07.27c-.2,1.31-.29,2.39-.27,3.24.02.85.2,1.51.53,1.99s.81.81,1.44,1c.63.19,1.44.29,2.41.29s1.8-.09,2.48-.27,1.24-.45,1.7-.81c.45-.36.82-.85,1.1-1.46.28-.61.49-1.35.63-2.21l3.97.1c-.27,1.52-.64,2.8-1.1,3.85s-1.09,1.91-1.87,2.56c-.78.66-1.76,1.13-2.94,1.43-1.18.29-2.6.44-4.28.44Z"/><path class="cls-1" d="m567.12,80.34h-4.68l.61-3.5h12.42l-.61,3.5h-7.74Zm-2.07,2.82l1.02-5.74c.16-.79.3-1.57.42-2.34.12-.77.23-1.45.32-2.04l4.07-.1c-.14.72-.27,1.42-.39,2.09s-.28,1.51-.46,2.53l-2.21,12.73c-.14.79-.18,1.39-.12,1.8.06.41.3.69.75.85.44.16,1.14.24,2.09.24.38,0,.71,0,.98-.02.27-.01.63-.03,1.09-.05l-.58,3.5c-.5.04-.93.08-1.29.1-.36.02-.8.03-1.32.03-1.36,0-2.47-.1-3.33-.29s-1.5-.5-1.92-.93c-.42-.43-.66-1.01-.73-1.73-.07-.72-.01-1.62.17-2.68.09-.41.19-.91.29-1.51s.21-1.25.34-1.95c.12-.7.25-1.43.39-2.19.14-.76.27-1.52.41-2.29Z"/><path class="cls-1" d="m576.23,92.02l1.87-10.59c.18-.95.33-1.8.44-2.55.11-.75.21-1.43.31-2.04h4.11c-.11.61-.23,1.29-.36,2.04-.12.75-.28,1.58-.46,2.51l-1.87,10.59c-.18.95-.33,1.79-.44,2.51-.11.72-.23,1.43-.34,2.1h-4.11c.14-.68.27-1.38.39-2.1.12-.72.28-1.55.46-2.48Zm3.6-20.61h4.11l-.61,3.36h-4.11l.61-3.36Z"/><path class="cls-1" d="m595.3,96.6h-6.08c-.14-.97-.32-2.12-.54-3.45-.23-1.32-.47-2.74-.73-4.24-.26-1.5-.52-3.01-.78-4.52-.26-1.5-.51-2.91-.75-4.21-.24-1.3-.45-2.42-.63-3.34h4.45l1.12,8.56c.14,1.18.29,2.38.46,3.62.17,1.23.33,2.44.49,3.62.16,1.18.32,2.24.48,3.19l-.92-3.06h2.11l-1.97,3.06c.43-.9.93-1.94,1.49-3.09.57-1.15,1.15-2.36,1.77-3.63.61-1.27,1.22-2.5,1.83-3.7l4.28-8.56h4.45c-.5.93-1.11,2.04-1.83,3.34-.72,1.3-1.48,2.7-2.27,4.21-.79,1.51-1.59,3.01-2.39,4.52-.8,1.51-1.55,2.92-2.24,4.24-.69,1.32-1.29,2.47-1.78,3.45Z"/><path class="cls-1" d="m613.52,97.01c-1.72,0-3.17-.16-4.36-.49-1.19-.33-2.12-.87-2.8-1.61-.68-.75-1.1-1.75-1.27-3-.17-1.26-.08-2.81.25-4.67l.17-1.02c.34-1.9.78-3.48,1.31-4.74.53-1.26,1.21-2.25,2.04-2.99.83-.73,1.84-1.26,3.04-1.58,1.2-.32,2.62-.48,4.28-.48s3.08.16,4.21.48c1.13.32,2.01.85,2.65,1.6.63.75,1.02,1.75,1.17,3,.15,1.26.05,2.82-.29,4.7-.02.16-.05.34-.08.54s-.07.4-.1.59c-.03.19-.07.39-.12.59h-15.51l.54-3.02h13.51l-2.65,2.41c.04-.18.08-.35.1-.51.02-.16.05-.31.08-.46.03-.15.06-.31.08-.49.23-1.24.33-2.27.32-3.07-.01-.8-.16-1.43-.46-1.88-.29-.45-.74-.77-1.32-.95-.59-.18-1.37-.27-2.34-.27s-1.82.1-2.55.29c-.72.19-1.32.53-1.78,1-.46.48-.87,1.14-1.21,2-.34.86-.62,1.97-.85,3.33l-.1.54c-.23,1.31-.32,2.4-.29,3.26.03.86.21,1.53.54,2.02.33.49.82.83,1.48,1.04s1.5.31,2.55.31,1.86-.07,2.53-.2c.67-.14,1.19-.35,1.58-.65.38-.29.68-.67.9-1.12.21-.45.38-.98.49-1.6l4.01.14c-.23,1.25-.55,2.31-.97,3.19-.42.88-.98,1.6-1.68,2.16-.7.55-1.62.96-2.77,1.22-1.14.26-2.59.39-4.33.39Z"/></svg>